<svg width="440" height="51" viewBox="0 0 440 51" fill="none" xmlns="http://www.w3.org/2000/svg">
<g clip-path="url(#clip0_879_21633)">
<path d="M325.619 25.3219C325.619 18.8029 325.619 12.28 325.619 5.76103C325.619 4.84314 325.627 3.92525 325.663 3.01126C325.69 2.28476 326.114 1.84339 326.778 1.81215C327.293 1.78871 327.811 1.77699 328.326 1.77699C334.415 1.77699 340.505 1.77309 346.595 1.7848C350.445 1.79262 354.201 2.39022 357.837 3.64012C360.686 4.6205 363.321 5.99929 365.64 7.921C370.032 11.5613 372.537 16.1976 373.21 21.8261C373.637 25.4195 373.42 28.9544 372.26 32.3916C370.385 37.9302 366.835 42.172 361.802 45.203C358.411 47.2458 354.731 48.5035 350.774 48.9683C348.72 49.2105 346.666 49.3511 344.597 49.3433C339.437 49.3237 334.273 49.3394 329.113 49.3355C328.29 49.3355 327.463 49.312 326.64 49.2769C326.161 49.2573 325.706 48.773 325.682 48.2496C325.643 47.3356 325.615 46.4177 325.615 45.5037C325.611 38.7778 325.615 32.0557 325.615 25.3297L325.619 25.3219ZM332.322 25.5015C332.322 30.4972 332.318 35.4968 332.326 40.4925C332.326 41.3049 332.393 42.1173 332.441 42.9297C332.461 43.2852 332.757 43.5156 333.023 43.5703C333.624 43.6914 334.245 43.7461 334.863 43.7461C338.479 43.7617 342.096 43.7812 345.713 43.7383C347.05 43.7226 348.392 43.582 349.725 43.418C352.966 43.0235 355.918 41.8517 358.589 40.0159C362.388 37.4068 364.884 33.8954 365.981 29.4348C366.523 27.228 366.562 24.9899 366.352 22.7479C366.02 19.174 364.592 16.0648 362.115 13.4401C360.548 11.78 358.692 10.5067 356.61 9.54196C353.373 8.04208 349.947 7.38589 346.397 7.34293C342.472 7.29605 338.547 7.31949 334.617 7.33121C332.477 7.33902 332.338 7.47182 332.334 9.58492C332.318 14.8892 332.33 20.1934 332.33 25.4937L332.322 25.5015Z" fill="#18171F"/>
<path d="M302.046 17.4169C302.046 21.19 302.07 24.9592 302.038 28.7323C302.022 30.8728 301.903 32.9976 301.357 35.099C299.779 41.2039 296.126 45.6254 290.432 48.426C287.82 49.711 285.051 50.457 282.15 50.789C278.415 51.2187 274.731 51.0117 271.094 50.0625C268.581 49.4064 266.227 48.3791 264.078 46.9222C258.812 43.3483 255.998 38.337 255.274 32.1344C255.155 31.1228 255.136 30.0994 255.136 29.08C255.124 20.8229 255.128 12.5696 255.128 4.31254C255.128 4.10943 255.128 3.90632 255.132 3.69931C255.175 1.99243 255.357 1.80104 257.11 1.78151C258.246 1.76979 259.381 1.78151 260.517 1.80104C261.407 1.82056 261.763 2.19553 261.803 3.14858C261.835 3.85945 261.835 4.57424 261.835 5.28902C261.835 12.6282 261.827 19.9675 261.843 27.3067C261.843 28.7323 261.851 30.1658 262.013 31.5798C262.741 37.8487 266.136 42.1648 272.135 44.2701C276.768 45.8949 281.501 45.7856 286.052 43.86C291.2 41.6844 294.167 37.755 295.05 32.2945C295.311 30.6775 295.37 29.0526 295.366 27.4199C295.355 20.0807 295.359 12.7415 295.366 5.4062C295.366 4.49221 295.422 3.57823 295.473 2.66424C295.493 2.27756 295.897 1.89868 296.269 1.85962C296.474 1.84009 296.68 1.79713 296.882 1.80104C302.711 1.87134 301.983 0.867521 302.026 6.7264C302.054 10.2925 302.03 13.8625 302.03 17.4286L302.046 17.4169Z" fill="#18171F"/>
<path d="M214.556 50.6054C208.644 50.3593 202.847 49.4688 197.244 47.5158C196.662 47.3127 196.096 47.0549 195.53 46.8089C195.242 46.6839 194.929 46.0824 195.02 45.7738C195.396 44.5083 195.78 43.2427 196.187 41.985C196.306 41.614 196.82 41.4031 197.216 41.532C197.707 41.6882 198.19 41.8679 198.676 42.0397C203.282 43.6412 208.019 44.6215 212.902 44.9028C215.715 45.0668 218.477 44.7934 221.168 43.9614C222.763 43.4693 224.219 42.7076 225.453 41.5749C227.048 40.1141 227.871 38.2979 227.954 36.1574C228.018 34.5326 227.404 33.1733 226.237 32.0445C225.489 31.3219 224.618 30.7907 223.681 30.3376C222.189 29.6189 220.626 29.0838 219.027 28.6776C216.526 28.0448 214.018 27.4472 211.505 26.8613C209.293 26.3457 207.105 25.7403 204.968 24.9709C203.215 24.3381 201.569 23.4944 200.03 22.4437C196.009 19.6901 194.703 14.9014 195.736 10.8275C196.171 9.10502 197.074 7.63249 198.273 6.33182C199.539 4.95694 201.039 3.88672 202.704 3.03132C205.593 1.55098 208.676 0.750264 211.909 0.570592C214.283 0.43779 216.653 0.539344 219.023 0.824476C222.826 1.28147 226.585 1.90642 230.269 2.95711C230.764 3.09772 231.239 3.29692 231.717 3.4805C232.085 3.62502 232.331 4.10545 232.224 4.48042C231.943 5.4608 231.63 6.43338 231.357 7.41767C230.779 9.51514 230.605 9.57764 228.603 8.88239C224.888 7.58562 221.073 6.7107 217.159 6.26151C214.473 5.95295 211.798 5.95295 209.154 6.62086C207.742 6.9763 206.381 7.46454 205.178 8.28087C204.505 8.73787 203.844 9.26126 203.31 9.87058C201.411 12.0266 201.565 15.0498 203.623 17.0536C204.517 17.9246 205.593 18.5222 206.729 19.0339C208.335 19.7565 210.021 20.2447 211.719 20.6744C213.519 21.1274 215.331 21.5376 217.148 21.9282C219.47 22.4281 221.781 22.9867 224.009 23.8069C225.457 24.342 226.89 24.9513 228.235 25.6896C229.308 26.2793 230.32 27.0293 231.219 27.8534C233.818 30.236 234.812 33.3022 234.582 36.7121C234.345 40.2235 232.782 43.1607 230.103 45.5004C227.978 47.3557 225.521 48.6329 222.814 49.4297C220.127 50.2226 217.385 50.6874 214.564 50.6054H214.556Z" fill="#18171F"/>
<path d="M44.6915 1.98022C44.9487 1.92554 45.2455 1.80836 45.5423 1.80445C47.1963 1.78492 48.8464 1.78492 50.5004 1.79664C51.272 1.80055 51.5569 2.28098 51.2285 3.03091C50.904 3.78085 50.5479 4.51516 50.1997 5.25338C47.6672 10.6123 45.1347 15.9673 42.6022 21.3262C38.6294 29.7318 34.6644 38.1451 30.6758 46.5428C30.2444 47.4529 29.9635 48.4685 29.0415 49.2223C26.9641 49.4137 24.7996 49.3512 22.6391 49.2614C22.184 49.2418 21.8793 48.9215 21.6696 48.5778C21.353 48.0544 21.1117 47.4881 20.8505 46.9334C14.2106 32.8956 7.56681 18.8577 0.926939 4.81592C0.622249 4.17144 0.297774 3.52696 0.048482 2.86296C-0.0504433 2.60517 0.032654 2.28098 0.032654 1.8982C2.33959 1.71071 4.58718 1.69509 6.77145 1.90601C7.61033 2.83952 7.95855 3.92146 8.42943 4.92919C13.6369 16.0298 18.8245 27.1382 24.0319 38.2389C24.4632 39.1607 24.9579 40.0512 25.4604 40.9378C25.5079 41.0199 25.9234 41.0355 25.9827 40.9535C26.331 40.4574 26.6673 39.9418 26.9245 39.395C29.6272 33.665 32.3179 27.9311 35.0047 22.1933C37.739 16.3657 40.4615 10.5342 43.2037 4.71046C43.6389 3.78866 43.9634 2.80827 44.6915 1.98413V1.98022Z" fill="#18171F"/>
<path d="M153.204 41.1824C153.734 40.9871 153.916 40.5106 154.126 40.0692C155.784 36.5578 157.434 33.0424 159.084 29.5271C162.993 21.2036 166.899 12.8762 170.805 4.55268C171.109 3.9043 171.382 3.2442 171.727 2.61534C171.976 2.15835 172.368 1.80291 172.945 1.80291C174.702 1.79901 176.459 1.80291 178.212 1.81854C178.746 1.82244 179.051 2.38099 178.814 2.92C178.442 3.75978 178.058 4.59564 177.666 5.4276C171.806 17.8055 165.945 30.1794 160.085 42.5533C159.167 44.4946 158.241 46.428 157.315 48.3654C157.026 48.9708 156.54 49.3106 155.855 49.3067C153.995 49.3067 152.135 49.295 150.276 49.2754C149.836 49.2715 149.464 49.045 149.263 48.6739C148.823 47.8654 148.416 47.0412 148.024 46.2093C141.994 33.4604 135.967 20.7115 129.937 7.96254C129.193 6.39236 128.445 4.82609 127.725 3.2442C127.602 2.97859 127.562 2.65831 127.574 2.36536C127.582 2.20913 127.76 1.94743 127.895 1.9279C129.846 1.63105 131.804 1.77948 133.763 1.83025C134.21 1.84197 134.558 2.10367 134.752 2.47473C135.227 3.377 135.674 4.29879 136.106 5.2245C141.305 16.329 146.493 27.4414 151.704 38.5381C152.131 39.452 152.381 40.4793 153.2 41.1863L153.204 41.1824Z" fill="#18171F"/>
<path d="M395.047 48.7095C393.171 48.8266 391.212 48.8305 389.254 48.7095C388.862 48.686 388.565 48.1978 388.719 47.8111C388.945 47.2447 389.163 46.6706 389.42 46.1198C396.147 31.8984 402.881 17.6808 409.616 3.46721C409.834 3.00631 410.063 2.54932 410.301 2.09623C410.554 1.6119 410.946 1.29161 411.512 1.2838C413.371 1.26427 415.227 1.26036 417.087 1.26818C417.637 1.26818 418.092 1.51034 418.357 1.99858C418.698 2.62744 419.01 3.27191 419.315 3.91639C425.911 17.8605 432.508 31.8046 439.1 45.7488C439.405 46.3932 439.725 47.0377 439.967 47.7095C440.058 47.9634 439.943 48.2915 439.915 48.6509C437.822 48.8813 435.764 48.8149 433.711 48.7095C433.271 48.686 432.939 48.3931 432.749 48.022C432.282 47.1119 431.847 46.1862 431.415 45.2644C426.216 34.1638 421.028 23.0593 415.817 11.9626C415.397 11.0681 415.105 10.0877 414.384 9.36514C413.68 9.69715 413.522 10.3143 413.265 10.8611C410.831 16.0365 408.398 21.2157 405.968 26.391C402.842 33.0506 399.724 39.7102 396.586 46.362C396.202 47.1783 395.973 48.1118 395.047 48.7055V48.7095Z" fill="#18171F"/>
<path d="M91.8502 17.4189C96.5907 17.4033 101.086 18.4149 105.233 20.7077C111.964 24.4261 115.992 30.117 117.428 37.5461C118.03 40.6669 117.939 43.8424 117.341 46.9828C117.211 47.6663 116.728 48.0921 116.063 48.096C114.413 48.0999 112.759 48.0764 111.109 48.0569C110.911 48.0569 110.547 47.5843 110.571 47.3812C110.713 46.2719 110.872 45.1626 111.002 44.0494C111.323 41.3778 111.065 38.7413 110.234 36.1907C107.781 28.6718 102.498 24.3284 94.6676 23.0356C88.8547 22.0747 83.5642 23.4457 78.982 27.1134C75.0329 30.2733 72.8209 34.4252 72.2036 39.4248C71.8752 42.0926 72.1561 44.7095 72.5479 47.3382C72.5795 47.5452 72.2511 47.8147 72.0611 48.0335C72.0097 48.0921 71.8633 48.0842 71.7644 48.0842C70.1143 48.0842 68.4603 48.096 66.8102 48.0608C66.3749 48.0491 66.0781 47.7132 65.9199 47.3109C65.8091 47.0257 65.6943 46.7328 65.6547 46.4359C65.1403 42.4519 65.1364 38.4874 66.4224 34.6284C69.3071 25.9846 75.3376 20.6295 84.1696 18.2704C86.6784 17.5986 89.2544 17.4033 91.8423 17.4228L91.8502 17.4189Z" fill="#18171F"/>
<path d="M76.2085 3.09279C76.8258 3.09279 77.447 3.12404 78.0643 3.08888C79.7381 2.99124 81.2893 3.33105 82.8721 3.92084C88.1903 5.89333 93.5679 5.89333 98.8782 3.86226C100.259 3.33496 101.609 3.03811 103.081 3.08498C105.138 3.14747 107.204 3.12013 109.261 3.15138C109.432 3.15138 109.602 3.31152 109.768 3.40526C109.974 3.52635 109.895 3.94819 109.625 4.20207C109.4 4.41299 109.186 4.63172 108.949 4.82702C107.754 5.8035 106.472 6.64718 105.103 7.36977C102.166 8.92433 99.0286 9.8344 95.7442 10.3539C91.2926 11.057 86.9043 10.7757 82.5634 9.7016C78.7132 8.74856 75.2232 7.04167 72.2079 4.46377C71.9863 4.27628 71.8083 4.00287 71.7054 3.73336C71.6539 3.60446 71.8122 3.24903 71.8953 3.24121C72.8173 3.167 73.7393 3.13185 74.6652 3.10451C75.1796 3.08888 75.694 3.10451 76.2124 3.10451L76.2085 3.09279Z" fill="#18171F"/>
</g>
<defs>
<clipPath id="clip0_879_21633">
<rect width="440" height="50.4918" fill="white" transform="translate(0 0.508301)"/>
</clipPath>
</defs>
</svg>
