<svg width="241" height="208" viewBox="0 0 241 208" fill="none" xmlns="http://www.w3.org/2000/svg">
<path d="M236.736 207.388C235.725 207.608 234.963 207.918 234.202 207.918C225.83 207.959 217.467 207.979 209.094 207.939C206.63 207.929 206.15 207.117 206.73 204.363C206.891 203.592 207.071 202.831 207.261 202.07C208.413 197.493 208.964 192.826 209.394 188.129C210.286 178.405 209.745 168.75 207.462 159.286C199.259 125.216 177.836 103.724 144.486 93.7494C119.478 87.5803 95.5712 90.2843 73.3673 103.544C51.2937 116.723 37.9634 136.302 32.8957 161.55C30.9127 171.404 30.8626 181.319 31.7139 191.234C32.1346 196.151 33.4966 200.988 34.418 205.855C34.5382 206.466 33.7971 207.568 33.2462 207.628C31.9543 207.758 30.6623 207.959 29.3703 207.969C24.1424 208.009 18.9044 208.009 13.6764 207.979C11.0625 207.969 8.44848 207.898 5.8345 207.808C4.77289 207.778 3.72129 206.967 3.49094 206.066C3.04025 204.293 2.48938 202.541 2.20896 200.738C-3.08911 166.738 3.74131 135.702 25.3642 108.511C39.6159 90.5847 58.1241 78.637 79.8773 71.8369C96.5126 66.6392 113.589 64.8666 131.025 66.2186C145.237 67.3102 158.978 70.2145 172.018 75.953C207.832 91.7264 229.946 118.857 238.188 157.053C241.423 172.035 241.063 187.208 238.349 202.29C238.028 204.043 237.267 205.725 236.726 207.368L236.736 207.388Z" fill="#F5F5F5"/>
<path d="M122.144 34.7418C99.8001 34.5716 81.5824 31.6873 64.1959 24.4666C52.2678 19.5093 41.4012 12.8594 31.8366 4.14652C31.0955 3.46551 30.4846 2.60424 29.9838 1.73295C29.8336 1.47256 30.1841 0.621301 30.5046 0.481093C31.1956 0.180648 32.0069 0.0504552 32.7681 0.0504552C45.3172 0.0204107 57.8563 0.0604701 70.4054 0.000381085C73.3599 -0.0196486 76.044 0.751494 78.708 1.93324C85.1779 4.8075 91.9382 6.85053 98.8988 8.08235C108.443 9.77486 118.018 10.5059 127.763 9.54451C138.79 8.4529 149.386 5.98925 159.521 1.54267C161.454 0.701419 163.407 0.0404404 165.56 0.0404404C178.891 0.0704849 192.221 0.0604701 205.541 0.140589C206.182 0.140589 206.893 0.761508 207.394 1.27226C207.554 1.4325 207.234 2.28376 206.913 2.63428C206.042 3.60572 205.101 4.51707 204.119 5.36833C191.51 16.3646 177.008 23.9258 161.053 28.7329C147.192 32.8991 132.961 34.5916 122.154 34.7518L122.144 34.7418Z" fill="#F5F5F5"/>
</svg>
